<?xml version="1.0" encoding="utf-8"?>
<!-- Generator: Adobe Illustrator 23.0.6, SVG Export Plug-In . SVG Version: 6.00 Build 0)  -->
<svg version="1.1" id="Layer_1" xmlns="http://www.w3.org/2000/svg" xmlns:xlink="http://www.w3.org/1999/xlink" x="0px" y="0px"
	 viewBox="0 0 200 200" style="enable-background:new 0 0 200 200;" xml:space="preserve">
<style type="text/css">
	.st0{fill:url(#SVGID_1_);}
	.st1{fill:#B70000;}
	.st2{fill:url(#SVGID_2_);}
</style>
<g>
	<linearGradient id="SVGID_1_" gradientUnits="userSpaceOnUse" x1="94.6164" y1="111.3181" x2="186.3874" y2="111.3181">
		<stop  offset="0" style="stop-color:#14002D"/>
		<stop  offset="0.7132" style="stop-color:#F71113"/>
		<stop  offset="1" style="stop-color:#FF5252"/>
	</linearGradient>
	<path class="st0" d="M129.49,177.23c-13.85,0-29.68-8.54-33.82-27.62c-0.71-3.03-1.06-6.51-1.06-10.87
		c0-11.16,3.51-21.58,9.89-29.34c4.35-5.3,9.77-9.12,16.02-11.37c-7.65-6.18-11.87-14.07-11.87-22.7
		c0-18.49,15.05-29.94,28.99-29.94l0.1,0c11.24,0.25,22.62,6.5,22.62,17.98c0,5.82-2.91,11.71-8.48,11.71h-0.39l-0.38-0.06
		c-3.52-0.59-5.63-3.02-5.63-6.52c0-1.76,0.68-3.37,1.34-4.92c0.25-0.6,0.67-1.58,0.75-1.99c-0.1-2.15-4.37-4.12-8.57-4.86
		c-3.14,1-9.97,10.38-9.97,21.26c0,6.57,2.82,15.14,16.24,18.63c2.13,0.54,4.46,2.41,4.46,6.05c0,3.58-2.64,6.39-6.01,6.39h-0.38
		c-19.22,0-26.07,14.84-26.07,28.73c0,12.75,6.17,26.4,15.39,26.64c18.91-2.28,28.02-23.19,36.07-41.66
		c2.22-5.1,4.32-9.92,6.54-14.1c0.97-1.88,3.04-3.09,5.3-3.09c3.32,0,5.82,2.59,5.82,6.01v1.65l-0.64,1.1
		c-1.78,3.04-3.73,7.45-5.98,12.56C170.93,146.95,157.58,177.23,129.49,177.23z"/>
</g>
<path class="st1" d="M164.61,47.02c-0.57-0.41-1.08-0.73-1.54-0.98c-0.56-0.31-1.21-0.6-2.09-0.96l-13.95-5.83
	c5.62-0.94,23.16-3.84,25.64-4.54c0.67-2.15,2.47-6.71,7.97-6.71h0.46l0.45,0.09c4.26,0.85,6.43,3.1,6.43,6.68
	c0,1.05-0.23,1.93-0.41,2.63l-0.1,0.4c-1.95,7.81-12.22,9.49-19.77,10.08l-1.7,0.13L164.61,47.02z"/>
<linearGradient id="SVGID_2_" gradientUnits="userSpaceOnUse" x1="10.0869" y1="102.4285" x2="119.4857" y2="102.4285">
	<stop  offset="0" style="stop-color:#510000"/>
	<stop  offset="0.2868" style="stop-color:#7C0000"/>
	<stop  offset="1" style="stop-color:#FF1A1A"/>
</linearGradient>
<path class="st2" d="M67.74,171.76c-4.88,0-8.42-2.53-9.48-6.78l-0.05-0.22l-0.03-0.22c-1.42-9.41-2.14-20.44-2.14-32.79
	c0-10.76,0.54-21.44,1.07-31.76l0.01-0.23c-0.13,0-0.25,0.01-0.38,0.01c-3.38,0.08-7.21,0.16-9.16,0.38l-0.26,0.03h-0.26
	c-3.16,0-5.63-2.64-5.63-6.02c0-3.21,2.47-5.73,5.65-5.82c1.96-0.11,6.73-0.35,10.76-0.48c1.15-18.57,2.08-32.97,3.29-41.31
	C57.26,46.07,52,45.7,46.29,45.7c-16.43,0-20.4,3.28-20.56,4.01l0.18,3.33v0.13c0,5-3.07,8.17-8.21,8.48l-0.14,0.01h-0.14
	c-3.39,0-7.34-2.42-7.34-9.24l0-0.16C10.74,33.1,33.53,33.1,42.11,33.1c11.55,0,25.04,1.94,39.33,4
	c10.96,1.58,12.92,2.27,24.15,3.15l13.9,1.08l-6.57,2.37c-3.57,2.05-4.87,3.55-5.45,3.93c-0.69,0.45-2.9,3.32-3.32,3.58l-1.32,0.82
	l-1.55-0.13c-7.66-0.64-5.55-0.53-11.38-1.19c-2.21-0.25-4.19-0.47-5.86-0.65c-1.31,9.15-2.13,20.08-3.14,33.43
	c-0.1,1.32-0.2,2.66-0.3,4.03l8.54-0.12c3.49,0,6.08,2.67,6.08,6.2v0.76l-0.24,0.72c-0.89,2.68-3.1,4.35-5.78,4.35l-9.5,0.13
	c-1.02,14.45-1.57,29.1-1.57,41.7c0,5.42,0.23,9.98,0.45,14.4c0.12,2.4,0.24,4.66,0.3,6.92l0,0.14c0,4.59-3.75,8.21-9.34,9
	l-0.33,0.05H67.74z"/>
</svg>
