<?xml version="1.0" encoding="utf-8"?>
<!-- Generator: Adobe Illustrator 23.0.6, SVG Export Plug-In . SVG Version: 6.00 Build 0)  -->
<svg version="1.1" id="Layer_1" xmlns="http://www.w3.org/2000/svg" xmlns:xlink="http://www.w3.org/1999/xlink" x="0px" y="0px"
	 viewBox="0 0 200 200" style="enable-background:new 0 0 200 200;" xml:space="preserve">
<style type="text/css">
	.st0{fill:url(#SVGID_1_);}
	.st1{fill:#B70000;}
	.st2{fill:url(#SVGID_2_);}
</style>
<g>
	<linearGradient id="SVGID_1_" gradientUnits="userSpaceOnUse" x1="100.0798" y1="110.9011" x2="188" y2="110.9011">
		<stop  offset="0" style="stop-color:#14002D"/>
		<stop  offset="0.7132" style="stop-color:#F71113"/>
		<stop  offset="1" style="stop-color:#FF5252"/>
	</linearGradient>
	<path class="st0" d="M101.09,150.71c-0.81-3.44-1.01-7.09-1.01-10.53c0-21.07,12.97-40.31,36.46-40.92
		c-11.34-5.06-21.47-14.18-21.47-26.74c0-16,12.97-26.94,25.93-26.94c9.32,0.2,19.24,5.06,19.24,14.18c0,3.04-1.22,7.5-4.05,7.5
		c-1.22-0.2-1.82-0.61-1.82-2.02c0-1.82,2.23-5.06,2.23-7.29c0-6.48-8.51-9.52-14.18-10.33c-6.69,0.61-15.6,14.18-15.6,27.75
		c0,10.33,5.47,20.66,21.07,24.72c0.81,0.2,1.01,0.81,1.01,1.62c0,0.81-0.41,1.82-1.42,1.82h-0.41c-23.5,0-32.82,18.03-32.82,35.65
		c0,16.81,8.51,33.43,21.68,33.43c29.37-3.24,38.69-41.53,49.63-62.19c0.2-0.41,0.81-0.61,1.22-0.61c1.01,0,1.21,0.81,1.21,1.42v0.4
		c-9.72,16.61-21.88,64.63-55.71,64.63C118.72,176.23,104.74,167.52,101.09,150.71z"/>
</g>
<path class="st1" d="M180.87,36.93c-4.25,0-3.44,5.87-5.06,6.28c-3.5,1.37-8.38,2.05-14.03,2.31c0.93,0.38,1.85,0.78,2.73,1.27
	c0.75,0.41,1.47,0.88,2.16,1.38c8.97-0.7,15.55-2.66,16.63-6.98c0.2-0.81,0.41-1.42,0.41-2.02
	C183.71,37.73,182.9,37.33,180.87,36.93z"/>
<linearGradient id="SVGID_2_" gradientUnits="userSpaceOnUse" x1="13.0869" y1="102.4829" x2="119.6016" y2="102.4829">
	<stop  offset="0" style="stop-color:#510000"/>
	<stop  offset="0.2868" style="stop-color:#7C0000"/>
	<stop  offset="1" style="stop-color:#FF1A1A"/>
</linearGradient>
<path class="st2" d="M92.5,91.44l-14.59,0.2c1.62-20.87,2.63-37.48,4.86-50.44c4.85,0.27,18.38,2.14,33.03,3.38
	c0.81-0.51,2.25-1.47,3.79-2.47c-27.81-2.16-56.09-8.61-77.34-8.61c-17.62,0-28.77,3.65-29.17,15.6c0,3.44,1.22,4.86,2.84,4.86
	c3.44-0.2,4.05-2.03,4.05-4.05l-0.2-3.65c0-7.29,13.78-9.32,26.94-9.32c8.71,0,17.22,0.81,21.68,1.82
	c-1.82,6.89-3.04,26.94-4.66,53.08c-3.85,0-12.36,0.41-16,0.61c-0.81,0-1.22,0.61-1.22,1.21c0,0.81,0.41,1.42,1.01,1.42
	c3.65-0.41,11.95-0.41,16-0.61c-0.61,12.36-1.42,25.93-1.42,39.3c0,11.75,0.61,23.5,2.23,34.24c0.61,2.43,2.63,3.44,5.27,3.44h1.22
	c2.84-0.4,5.67-2.02,5.67-4.66c-0.2-6.69-0.81-13.78-0.81-22.89c0-15.8,0.81-33.63,2.03-49.43l14.79-0.2c0.81,0,1.22-0.61,1.42-1.22
	C93.92,92.25,93.51,91.44,92.5,91.44z"/>
</svg>
